<svg xmlns="http://www.w3.org/2000/svg" width="1600" height="1200" viewBox="0 0 1600 1200">
  <rect fill="#C5E1A5" width="1600" height="1200"/>
  <rect fill="#8BC34A" x="200" y="400" width="1200" height="500" rx="20"/>
  <rect fill="#689F38" x="250" y="450" width="300" height="200" rx="10"/>
  <rect fill="#689F38" x="600" y="450" width="200" height="200" rx="10"/>
  <rect fill="#689F38" x="850" y="450" width="200" height="200" rx="10"/>
  <rect fill="#689F38" x="1100" y="450" width="250" height="200" rx="10"/>
  <circle fill="#fff" opacity="0.5" cx="400" cy="550" r="40"/>
  <circle fill="#fff" opacity="0.5" cx="700" cy="550" r="30"/>
  <circle fill="#fff" opacity="0.5" cx="950" cy="550" r="30"/>
  <rect fill="#558B2F" x="300" y="700" width="150" height="150" rx="10"/>
  <rect fill="#558B2F" x="500" y="700" width="150" height="150" rx="10"/>
  <rect fill="#558B2F" x="700" y="700" width="150" height="150" rx="10"/>
  <rect fill="#558B2F" x="900" y="700" width="150" height="150" rx="10"/>
  <rect fill="#558B2F" x="1100" y="700" width="150" height="150" rx="10"/>
  <text x="800" y="250" font-family="Arial, sans-serif" font-size="48" fill="#33691E" text-anchor="middle" opacity="0.8">Coffee Bar</text>
</svg>