<svg xmlns="http://www.w3.org/2000/svg" width="1600" height="1200" viewBox="0 0 1600 1200">
  <rect fill="#F8BBD9" width="1600" height="1200"/>
  <circle fill="#F48FB1" cx="400" cy="400" r="150"/>
  <circle fill="#F48FB1" cx="800" cy="300" r="100"/>
  <circle fill="#F48FB1" cx="1200" cy="400" r="180"/>
  <polygon fill="#EC407A" points="400,600 500,800 300,800"/>
  <polygon fill="#EC407A" points="800,500 900,700 700,700"/>
  <polygon fill="#EC407A" points="1200,650 1350,900 1050,900"/>
  <rect fill="#AD1457" x="200" y="900" width="100" height="200" rx="10"/>
  <rect fill="#AD1457" x="450" y="850" width="100" height="250" rx="10"/>
  <rect fill="#AD1457" x="700" y="920" width="100" height="180" rx="10"/>
  <rect fill="#AD1457" x="950" y="870" width="100" height="230" rx="10"/>
  <rect fill="#AD1457" x="1200" y="950" width="100" height="150" rx="10"/>
  <circle fill="#fff" opacity="0.4" cx="800" cy="600" r="80"/>
  <text x="800" y="620" font-family="Arial, sans-serif" font-size="36" fill="#880E4F" text-anchor="middle" opacity="0.8">Decorations</text>
</svg>